# xmcd
#
# Track frame offsets:
#	150
#	12227
#	25110
#	38005
#	51670
#	62510
#	73260
#	85710
#	98802
#	112067
#	123942
#	137247
#	151132
#	164440
#	173942
#	187580
#	199530
#
# Disc length: 2836 seconds
#
# Revision: 4
# Processed by: cddbd v1.5.2PL0 Copyright (c) Steve Scherf et al.
# Submitted via: audiograbber 1.83.01
#
DISCID=de0b1211
DTITLE=Martha Reeves and The Vandellas - The Universal Masters Collection
DYEAR=2000
DGENRE=Pop
TTITLE0=Dancing In The Street
TTITLE1=Nowhere To Run
TTITLE2=Jimmy Mack
TTITLE3=My Baby Loves Me
TTITLE4=In My Lonely Room
TTITLE5=Come And Get These Memories
TTITLE6=(Love Is Like) A Heat Wave
TTITLE7=I'm Ready For Love
TTITLE8=Love (Makes Me Do Foolish Things)
TTITLE9=Quicksand
TTITLE10=Honey Chile
TTITLE11=Bless You
TTITLE12=Forget Me Not
TTITLE13=I Promise To Wait My Love
TTITLE14=Tear It On Down
TTITLE15=Live Wire
TTITLE16=I Should Be Proud
EXTD=
EXTT0=
EXTT1=
EXTT2=
EXTT3=
EXTT4=
EXTT5=
EXTT6=
EXTT7=
EXTT8=
EXTT9=
EXTT10=
EXTT11=
EXTT12=
EXTT13=
EXTT14=
EXTT15=
EXTT16=
PLAYORDER=
